<svg xmlns="http://www.w3.org/2000/svg" viewBox="0 0 248.3 226"><path d="M26.6 219.3h16c6.9 0 12.5-4.8 12.5-10.8v-35.3c-13.3 1.7-27 2.7-40.8 3.1H14v32.2c.1 6 5.7 10.8 12.6 10.8zM100.1 219.3c6.9 0 12.5-4.8 12.5-10.8v-47.2c-6.6 2-13.5 3.7-20.5 5.3-6.2 1.4-12.6 2.7-19 3.8-.5.1-1 .2-1.6.3v37.8c0 5.9 5.6 10.8 12.5 10.8h16.1zM157.6 219.3c6.9 0 12.5-4.8 12.5-10.8v-71.1c-1.2.7-2.4 1.4-3.6 2-10.6 5.7-22.1 10.9-34.3 15.4-1 .4-2 .7-3.1 1.1v52.5c0 5.9 5.6 10.8 12.5 10.8l16 .1zM227.6 208.6V84.3c-2.5 4.4-5.5 8.8-8.8 13-7.3 9.3-16.4 18.1-27.1 26.2-1.7 1.2-3.4 2.5-5.1 3.7v81.4c0 5.9 5.6 10.8 12.5 10.8h16c6.9-.1 12.5-4.9 12.5-10.8zM9 159.6h.1c1.7 0 3.3-.1 5-.1 13.9-.4 27.6-1.4 41-3.2 5.6-.7 11-1.5 16.5-2.5 6.3-1.1 12.4-2.3 18.5-3.7 7.7-1.8 15.2-3.7 22.5-6 5.6-1.7 11.1-3.5 16.5-5.5 11.8-4.4 23-9.3 33.2-14.9 2.7-1.4 5.3-2.9 7.8-4.4 5.9-3.5 11.4-7.2 16.5-11 10.2-7.7 18.9-16 25.8-24.9 7-8.9 12-18.2 15.2-27.6 1.4-4.3 2.5-8.6 3.1-12.9h5.7c5 0 8-4.9 5.2-8.4l-18.4-22.9c-1.3-1.5-3.2-2.3-5.2-2.3s-3.9.8-5.2 2.3l-18.4 22.9c-2.9 3.6.1 8.4 5.2 8.4h5.7c-2 9.8-6.6 19.4-13.8 28.6-1.6 2-3.3 4-5 5.9-4.7 5.2-10.2 10.1-16.5 14.8-6.3 4.7-13.3 9.2-21.1 13.4-6.3 3.4-12.9 6.6-19.9 9.5-5.3 2.2-10.8 4.3-16.5 6.2-9.2 3.1-18.8 5.8-28.9 8.1-4 .9-8 1.8-12.1 2.5-5.4 1-10.9 1.9-16.5 2.7-13.4 1.9-27.1 3-41 3.4-1.7 0-3.5.1-5.2.1-3.4.1-6.2 2.4-6.2 5.4v10.8c.1 2.8 2.9 5.3 6.4 5.3z"/></svg>