<svg height="153" width="184" xmlns="http://www.w3.org/2000/svg" viewBox="0 0 184 153"><path fill="#e8aa5a" fill-rule="evenodd" d="M174.98 55.96h-43.53l-20.04 17.32c-.5.43-1.13.66-1.77.66-.38 0-.76-.08-1.12-.25a2.693 2.693 0 0 1-1.58-2.45V55.96h-6.55c-4.78 0-8.67-3.89-8.67-8.68V8.79c0-4.78 3.89-8.68 8.67-8.68h74.59c4.78 0 8.67 3.9 8.67 8.68v38.49c0 4.79-3.89 8.68-8.67 8.68zm-58.89-35.31a6.88 6.88 0 0 0-6.88 6.88c0 3.81 3.08 6.89 6.88 6.89 3.81 0 6.89-3.08 6.89-6.89 0-3.8-3.08-6.88-6.89-6.88zm21.6 0c-3.8 0-6.89 3.08-6.89 6.88a6.89 6.89 0 0 0 6.89 6.89c3.8 0 6.88-3.08 6.88-6.89 0-3.8-3.08-6.88-6.88-6.88zm21.59 0a6.88 6.88 0 0 0-6.88 6.88c0 3.81 3.08 6.89 6.88 6.89s6.88-3.08 6.88-6.89c0-3.8-3.08-6.88-6.88-6.88zM55.3 99.55c-15.93.25-25.69-13.7-25.94-36.7-.17-16.79 9.13-25.5 25.94-25.5 17.18 0 25.94 8.71 25.94 25.5 0 37.76-25.94 36.7-25.94 36.7zm-13.91 2.01a4.043 4.043 0 0 1 5.45.22l8.46 8.4 8.44-8.4a4.043 4.043 0 0 1 5.45-.22l6.07 5.12 25.91 10.33c8.35 3.32 8.35 32.89 9.07 35.59H.35c.72-2.71.71-32.27 9.06-35.59l25.91-10.33 6.07-5.12z"/></svg>