<svg height="159" width="159" xmlns="http://www.w3.org/2000/svg" viewBox="0 0 159 159"><path fill="#e8aa5a" fill-rule="evenodd" d="M19.82 24.8V4.96A4.96 4.96 0 0 1 24.78 0a4.96 4.96 0 0 1 4.96 4.96V24.8a4.96 4.96 0 0 1-4.96 4.96 4.96 4.96 0 0 1-4.96-4.96zm84.32 4.96a4.96 4.96 0 0 0 4.96-4.96V4.96A4.96 4.96 0 0 0 104.14 0a4.96 4.96 0 0 0-4.96 4.96V24.8a4.96 4.96 0 0 0 4.96 4.96zm54.56 89.28c0 21.91-17.77 39.68-39.68 39.68s-39.68-17.77-39.68-39.68 17.77-39.68 39.68-39.68 39.68 17.77 39.68 39.68zm-9.92 0c0-16.41-13.35-29.76-29.76-29.76-16.41 0-29.76 13.35-29.76 29.76 0 16.41 13.35 29.76 29.76 29.76 16.41 0 29.76-13.35 29.76-29.76zM39.66 59.52H19.82v19.84h19.84V59.52zm-19.84 49.6h19.84V89.28H19.82v19.84zm29.76-29.76h19.84V59.52H49.58v19.84zm0 29.76h19.84V89.28H49.58v19.84zM9.9 118.05V49.6h109.12v19.84h9.92V30.75c0-6.03-4.8-10.91-10.74-10.91h-4.14v4.96c0 5.46-4.45 9.92-9.92 9.92s-9.92-4.46-9.92-9.92v-4.96H34.7v4.96c0 5.46-4.45 9.92-9.92 9.92s-9.92-4.46-9.92-9.92v-4.96h-4.13c-5.94 0-10.75 4.88-10.75 10.91v87.3c0 6.01 4.81 10.91 10.75 10.91h58.69v-9.92H10.73c-.45 0-.83-.47-.83-.99zm89.28-38.69V59.52H79.34v19.84h19.84zm34.72 39.68h-14.88v-14.88a4.96 4.96 0 0 0-4.96-4.96 4.96 4.96 0 0 0-4.96 4.96V124a4.96 4.96 0 0 0 4.96 4.96h19.84a4.96 4.96 0 0 0 4.96-4.96 4.96 4.96 0 0 0-4.96-4.96z"/></svg>