<svg height="155" width="177" xmlns="http://www.w3.org/2000/svg" viewBox="0 0 177 155"><path fill="#e8aa5a" fill-rule="evenodd" d="M161.45 125.26h-47.26l8.83 19.46a6.6 6.6 0 0 1-5.86 9.64h-.01-58.08c-2.24 0-4.33-1.14-5.55-3.02a6.62 6.62 0 0 1-.46-6.31l8.97-19.77H14.77c-8.08 0-14.66-6.58-14.66-14.66V15.02C.11 6.93 6.69.36 14.77.36h146.68c8.08 0 14.66 6.57 14.66 14.66v95.58c0 8.08-6.58 14.66-14.66 14.66zm1.46-14.66V15.02c0-.81-.65-1.46-1.46-1.46H14.77c-.81 0-1.46.65-1.46 1.46v95.58c0 .81.65 1.46 1.46 1.46h146.68c.81 0 1.46-.65 1.46-1.46zm-55.33-28.65c-4.69 7.8-10.42 14.37-17.05 19.52-.71.55-1.57.83-2.42.83-.85 0-1.71-.28-2.42-.83-6.63-5.15-12.36-11.72-17.05-19.52-3.71-6.18-6.77-13.14-9.09-20.7-3.95-12.82-4.42-22.89-4.44-23.31a3.95 3.95 0 0 1 1.88-3.53c.39-.23 9.66-5.75 31.12-5.75s30.73 5.52 31.12 5.75a3.95 3.95 0 0 1 1.88 3.53c-.02.42-.49 10.49-4.44 23.31-2.32 7.56-5.38 14.52-9.09 20.7zm-4.85-32.21l-1.57-1.57c-.5-.5-1.17-.78-1.88-.78s-1.38.28-1.88.78L83.44 62.13l-4.63-4.62c-.5-.5-1.17-.77-1.88-.77s-1.38.27-1.89.77l-1.55 1.55a2.668 2.668 0 0 0 0 3.77l8.06 8.08c.51.51 1.18.78 1.89.78s1.38-.27 1.88-.78l17.41-17.4a2.668 2.668 0 0 0 0-3.77z"/></svg>