<svg height="157" width="157" xmlns="http://www.w3.org/2000/svg" viewBox="0 0 157 157"><path fill="#e8aa5a" fill-rule="evenodd" d="M150.74 84.48h-6.4c-1.42 15.27-8.18 29.65-19.09 40.57-10.91 10.91-25.3 17.67-40.57 19.09v6.4c0 3.37-2.75 6.12-6.12 6.12s-6.12-2.75-6.12-6.12v-6.4c-15.27-1.42-29.65-8.18-40.57-19.09-10.91-10.92-17.68-25.3-19.09-40.57h-6.4c-3.37 0-6.12-2.75-6.12-6.12 0-3.38 2.75-6.12 6.12-6.12h6.4c1.41-15.27 8.18-29.66 19.09-40.57 10.92-10.91 25.3-17.68 40.57-19.09v-6.4c0-3.38 2.75-6.12 6.12-6.12s6.12 2.74 6.12 6.12v6.4c15.27 1.41 29.66 8.18 40.57 19.09s17.67 25.3 19.09 40.57h6.4a6.12 6.12 0 0 1 6.12 6.12c0 3.37-2.74 6.12-6.12 6.12zm-24.47-12.24h5.77c-2.82-24.8-22.56-44.54-47.36-47.36v5.77c0 3.38-2.75 6.12-6.12 6.12s-6.12-2.74-6.12-6.12v-5.77C47.64 27.7 27.9 47.44 25.08 72.24h5.78c3.37 0 6.11 2.74 6.11 6.12 0 3.37-2.74 6.12-6.11 6.12h-5.78c2.82 24.8 22.56 44.54 47.36 47.36v-5.78c0-3.37 2.75-6.11 6.12-6.11s6.12 2.74 6.12 6.11v5.78c24.8-2.82 44.54-22.56 47.36-47.36h-5.77c-3.38 0-6.12-2.75-6.12-6.12a6.12 6.12 0 0 1 6.12-6.12zM51.5 91.17l15.28-6.09 3.58-3.02c.94-.79 2.34-.74 3.22.13l4.98 4.95 4.98-4.95c.87-.87 2.27-.93 3.21-.13l3.58 3.02 15.28 6.09c4.92 1.96 4.92 19.38 5.34 20.98H46.17c.42-1.6.41-19.02 5.33-20.98zm27.07-10.29c-9.4.14-15.16-8.08-15.3-21.63-.1-9.9 5.38-15.04 15.3-15.04 10.12 0 15.28 5.14 15.29 15.04 0 22.25-15.29 21.63-15.29 21.63z"/></svg>