<svg height="155" width="170" xmlns="http://www.w3.org/2000/svg" viewBox="0 0 170 155"><path fill="#e8aa5a" fill-rule="evenodd" d="M159.64 154.11H10.92c-5.6 0-10.15-4.55-10.15-10.15V10.76C.77 5.16 5.32.61 10.92.61h148.72c5.6 0 10.16 4.55 10.16 10.15v133.2c0 5.6-4.56 10.15-10.16 10.15zM12.96 141.93h144.65V36.92H12.96v105.01zM122.82 17.66a3.75 3.75 0 0 0-3.75-3.75h-3.75a3.75 3.75 0 0 0-3.75 3.75v4.25a3.75 3.75 0 0 0 3.75 3.75h3.75a3.75 3.75 0 0 0 3.75-3.75v-4.25zm17.44 0c0-2.07-1.67-3.75-3.75-3.75h-3.75a3.75 3.75 0 0 0-3.75 3.75v4.25a3.75 3.75 0 0 0 3.75 3.75h3.75c2.08 0 3.75-1.68 3.75-3.75v-4.25zm17.44 0c0-2.07-1.67-3.75-3.75-3.75h-3.75a3.75 3.75 0 0 0-3.75 3.75v4.25a3.75 3.75 0 0 0 3.75 3.75h3.75c2.08 0 3.75-1.68 3.75-3.75v-4.25zm-24.19 75.72l-27.18 12.64c-.71.33-1.46.49-2.23.49-1.01 0-1.99-.28-2.84-.83a5.255 5.255 0 0 1-2.45-4.45v-.14c0-2.04 1.2-3.93 3.06-4.79l17.01-7.9-17.01-7.89a5.317 5.317 0 0 1-3.06-4.8v-.13a5.272 5.272 0 0 1 5.29-5.28c.77 0 1.54.17 2.23.49l27.18 12.63c1.86.87 3.06 2.75 3.06 4.8v.37c0 2.05-1.2 3.93-3.06 4.79zm-52.09 24.25a5.264 5.264 0 0 1-5.03 3.67h-.13a5.3 5.3 0 0 1-4.27-2.17 5.32 5.32 0 0 1-.77-4.73l17.91-55.48a5.286 5.286 0 0 1 5.04-3.67h.13c1.69 0 3.28.81 4.27 2.17a5.29 5.29 0 0 1 .76 4.73l-17.91 55.48zm-12.11-11.95c-.86.55-1.84.83-2.85.83-.77 0-1.52-.16-2.22-.49L37.05 93.38a5.29 5.29 0 0 1-3.06-4.79v-.37c0-2.05 1.2-3.93 3.06-4.8l27.19-12.63c.68-.32 1.45-.49 2.22-.49 1.02 0 2 .28 2.85.82 1.53.98 2.44 2.64 2.44 4.46v.13c0 2.05-1.2 3.93-3.06 4.79l-17.01 7.9 17.01 7.9c1.86.86 3.06 2.75 3.06 4.79v.14c0 1.81-.91 3.48-2.44 4.45z"/></svg>