<svg id="Capa_1" xmlns="http://www.w3.org/2000/svg" viewBox="0 0 485.2 363.9"><style>.st0{fill:#dbb789}</style><path class="st0" d="M485.2 303.3c0 10.6-3 20.5-7.8 29.2L324.2 161 475.8 28.4c5.9 9.4 9.4 20.3 9.4 32.2v242.7zM242.6 192.1L453.5 7.6C444.8 2.9 435.1 0 424.6 0H60.7C50.1 0 40.4 2.9 31.8 7.6l210.8 184.5zm58.8-11.1l-48.8 42.7c-2.9 2.5-6.4 3.7-10 3.7-3.6 0-7.1-1.2-10-3.7L183.8 181 28.7 354.6c9.3 5.8 20.2 9.3 32 9.3h363.9c11.8 0 22.7-3.5 32-9.3L301.4 181zM9.4 28.4C3.6 37.8 0 48.8 0 60.7v242.6c0 10.6 3 20.5 7.8 29.2L161 161 9.4 28.4z"/></svg>