<svg id="Capa_1" xmlns="http://www.w3.org/2000/svg" viewBox="0 0 248.3 226"><style>.st0{fill:#020202}</style><path class="st0" d="M226.4 115.9h-82.7v14.9h82.8v72.3h-82.8c0 5.4-1.9 10.5-5 14.9h87.7c9.8 0 17.8-6.7 17.8-14.9v-72.3c0-8.2-8-14.9-17.8-14.9zM108.1 51.3H21.9c-9.8 0-17.8 6.7-17.8 14.9v136.9c0 8.2 8 14.9 17.8 14.9h86.2c9.8 0 17.8-6.7 17.8-14.9V66.2c0-8.2-8-14.9-17.8-14.9zM21.9 66.1l86.3.1v122H21.9V66.1zm33.7 136.6c0-4.3 4.2-7.9 9.4-7.9s9.4 3.5 9.4 7.9-4.2 7.9-9.4 7.9c-5.1 0-9.4-3.6-9.4-7.9zM184.3 63.2h-11.8c-.9 0-1.6.4-2 1.1-.3.7-.1 1.4.5 1.9l20.7 17.4c.8.7 2.2.7 3 0l20.7-17.4c.6-.5.8-1.3.5-1.9-.3-.7-1.1-1.1-2-1.1H202C201.4 32.7 171.6 8 135 8c-4.9 0-8.9 3.3-8.9 7.4 0 4.1 4 7.4 8.9 7.4 26.8.1 48.7 18.1 49.3 40.4z"/></svg>