<svg xmlns="http://www.w3.org/2000/svg" viewBox="0 0 248.3 226"><path d="M188.4 204.7h-26.2c-.9 0-1.7-.9-1.7-2v-7.3c0-1.1-.8-2-1.7-2h-36.6c-.9 0-1.7.9-1.7 2v7.3c0 1.1-.8 2-1.7 2H99.1c-.9 0-1.7.9-1.7 2v8.4c0 1.1.8 2 1.7 2h89.3c.9 0 1.7-.9 1.7-2v-8.4c0-1.1-.7-2-1.7-2zM232.4 8H45.7c-6.5 0-11.8 6-11.8 13.5v35.1c0 4.6-.3 5.3 2.4 5.3H41c2.3 0 1.8-.7 1.8-5.4v-35c0-1.8 1.3-3.3 2.9-3.3h186.7c1.6 0 2.9 1.5 2.9 3.3v131.4H102.2s-4.7 0-4.7 6.9v16.4c0 6.9 4.8 6.9 4.8 6.9h130.1c6.5 0 11.8-6 11.8-13.5V21.5c0-7.5-5.3-13.5-11.8-13.5zM139 171.5c-2.9 0-5.3-2.7-5.3-6.1s2.4-6.1 5.3-6.1 5.3 2.7 5.3 6.1c0 3.3-2.3 6.1-5.3 6.1z"/><path d="M79.3 73.9H11.8c-4.2 0-7.6 3.9-7.6 8.7v126.8c0 4.8 3.4 8.7 7.6 8.7h67.5c4.2 0 7.6-3.9 7.6-8.7V82.5c0-4.7-3.4-8.6-7.6-8.6zm-42.1 8.8h16.7c.8 0 1.4.7 1.4 1.6 0 .9-.6 1.6-1.4 1.6H37.2c-.8 0-1.4-.7-1.4-1.6 0-.8.6-1.6 1.4-1.6zm8.2 129.2c-2.2 0-3.9-2-3.9-4.5s1.8-4.5 3.9-4.5 3.9 2 3.9 4.5-1.7 4.5-3.9 4.5zm35-13.2c0 1.2-.8 2.1-1.8 2.1H12.5c-1 0-1.8-.9-1.8-2.1V93.4c0-1.2.8-2.1 1.8-2.1h66.1c1 0 1.8.9 1.8 2.1v105.3z"/></svg>