<svg id="Capa_1" xmlns="http://www.w3.org/2000/svg" viewBox="0 0 159 159"><style>.st0{fill:#e8aa5a}</style><path class="st0" d="M152.8 73.3h-6.5c-1.4-15.5-8.3-30.1-19.4-41.2s-25.7-17.9-41.2-19.4V6.2C85.8 2.8 83 0 79.5 0s-6.2 2.8-6.2 6.2v6.5C57.8 14.1 43.2 21 32.1 32.1S14.2 57.8 12.8 73.3H6.2c-3.4 0-6.2 2.8-6.2 6.2s2.8 6.2 6.2 6.2h6.5c1.4 15.5 8.3 30.1 19.4 41.2 11.1 11.1 25.7 17.9 41.2 19.4v6.5c0 3.4 2.8 6.2 6.2 6.2s6.2-2.8 6.2-6.2v-6.5c15.5-1.4 30.1-8.3 41.2-19.4 11.1-11.1 17.9-25.7 19.4-41.2h6.5c3.4 0 6.2-2.8 6.2-6.2s-2.8-6.2-6.2-6.2zM128 85.7h5.8c-2.9 25.2-22.9 45.2-48.1 48.1V128c0-3.4-2.8-6.2-6.2-6.2s-6.2 2.8-6.2 6.2v5.8c-25.2-2.9-45.2-22.9-48.1-48.1H31c3.4 0 6.2-2.8 6.2-6.2s-2.8-6.2-6.2-6.2h-5.8c2.9-25.2 22.9-45.2 48.1-48.1V31c0 3.4 2.8 6.2 6.2 6.2s6.2-2.8 6.2-6.2v-5.8c25.2 2.9 45.2 22.9 48.1 48.1H128c-3.4 0-6.2 2.8-6.2 6.2s2.7 6.2 6.2 6.2z"/><path class="st0" d="M79.5 44.8C69.4 44.8 63.9 50 64 60.1c.1 13.8 6 22.1 15.5 22 0 0 15.5.6 15.5-22 0-10.1-5.2-15.3-15.5-15.3zM107 92.5l-15.5-6.2-3.6-3.1c-1-.8-2.4-.8-3.3.1l-5 5-5.1-5c-.9-.9-2.3-1-3.3-.1l-3.6 3.1-15.5 6.2c-5 2-5 19.7-5.4 21.3h65.8c-.5-1.6-.5-19.3-5.5-21.3z"/></svg>