<svg height="161" width="182" xmlns="http://www.w3.org/2000/svg" viewBox="0 0 182 161"><path fill="#392919" fill-rule="evenodd" d="M170.34 128.71h-31.36s-3.91 0-3.91-2.77v-3.82c0-3.15 3.68-2.77 3.68-2.77h18.23c1.46 0 2.65-1.17 2.65-2.59V12.78c0-1.43-1.19-2.59-2.65-2.59H19.88c-1.45 0-2.64 1.16-2.64 2.59v103.98c0 1.42 1.19 2.59 2.64 2.59H54.6s2.31-.19 3.19 1.53c.1.19 2.25 4.19 2.73 5.69.67 2.14-2.3 2.14-2.3 2.14h-47.3c-6.02 0-10.91-4.88-10.91-10.9L0 11.72C0 5.71 4.9.82 10.92.82h159.42c6.02 0 10.92 4.89 10.92 10.9v106.09c0 6.02-4.9 10.9-10.92 10.9zm-2.19-69.35c-2.93 0-5.32 2.38-5.32 5.31a5.326 5.326 0 0 0 10.65 0c0-2.93-2.39-5.31-5.33-5.31zM65.99 106.31c1.06-.66 2.21-.98 3.34-.98 2.46 0 4.84 1.5 6.11 4.13l3.24 6.75V67.7c0-4.38 3.12-7.94 6.97-7.94 3.84 0 6.96 3.56 6.96 7.94v24.63c1.27-1.7 3.17-2.79 5.29-2.79 2.65 0 4.95 1.69 6.13 4.17 1.17-2.48 3.48-4.17 6.12-4.17 3.85 0 6.97 3.56 6.97 7.94v.32c1.05-2.09 3.02-3.51 5.29-3.51 3.37 0 6.1 3.12 6.1 6.96v44.34c0 8.4-5.77 15.22-12.87 15.22H91.47c-4.12 0-7.25-2.72-9.6-6.28-.86-1.29-2.58-3.99-2.59-4.03l-16.05-33.41c-1.85-3.85-.61-8.67 2.76-10.78z"/></svg>