<svg xmlns="http://www.w3.org/2000/svg" viewBox="0 0 192 163.2"><path d="M147.4 153.6h-20.9c-.8 0-1.4-.7-1.4-1.5v-5.7c0-.9-.6-1.5-1.4-1.5H94.5c-.8 0-1.4.7-1.4 1.5v5.7c0 .9-.6 1.5-1.4 1.5H76c-.8 0-1.4.7-1.4 1.5v6.6c0 .9.6 1.5 1.4 1.5h71.4c.8 0 1.4-.7 1.4-1.5v-6.6c0-.8-.6-1.5-1.4-1.5zM182.6 0H33.2c-5.2 0-9.4 4.7-9.4 10.5v27.4c0 3.6-.2 4.2 1.9 4.2h3.7c1.8 0 1.5-.5 1.5-4.2V10.6C30.9 9.2 32 8 33.2 8h149.4c1.3 0 2.3 1.2 2.3 2.5v102.6H78.4s-3.7 0-3.7 5.4v12.8c0 5.4 3.9 5.4 3.9 5.4h104c5.2 0 9.4-4.7 9.4-10.5V10.5c0-5.8-4.2-10.5-9.4-10.5zm-74.7 127.6c-2.3 0-4.3-2.1-4.3-4.8s1.9-4.8 4.3-4.8c2.3 0 4.3 2.1 4.3 4.8s-1.9 4.8-4.3 4.8z"/><path d="M60.1 51.4h-54c-3.3 0-6.1 3-6.1 6.8v99c0 3.7 2.7 6.8 6.1 6.8h54c3.3 0 6.1-3 6.1-6.8v-99c0-3.7-2.8-6.8-6.1-6.8zm-33.7 6.9h13.3c.6 0 1.2.6 1.2 1.3 0 .7-.5 1.3-1.2 1.3H26.4c-.6 0-1.2-.6-1.2-1.3.1-.7.6-1.3 1.2-1.3zM33 159.2c-1.7 0-3.1-1.6-3.1-3.5s1.4-3.5 3.1-3.5c1.7 0 3.1 1.6 3.1 3.5.1 1.9-1.3 3.5-3.1 3.5zm28-10.3c0 .9-.6 1.6-1.5 1.6H6.7c-.8 0-1.5-.8-1.5-1.6V66.6c0-.9.6-1.6 1.5-1.6h52.8c.8 0 1.5.8 1.5 1.6v82.3z"/></svg>