<svg xmlns="http://www.w3.org/2000/svg" viewBox="0 0 192 164"><path d="M129.6 95.8c-2.4 0-4.5 1.5-5.6 3.6v-.3c0-4.5-3.3-8.1-7.4-8.1-2.8 0-5.2 1.8-6.5 4.3-1.2-2.6-3.7-4.3-6.5-4.3-2.3 0-4.3 1.1-5.6 2.8V68.5c0-4.5-3.3-8.1-7.4-8.1s-7.4 3.6-7.4 8.1v49.7l-3.4-6.9c-1.3-2.7-3.9-4.2-6.5-4.2-1.2 0-2.4.3-3.5 1-3.6 2.2-4.9 7.1-2.9 11l17 34.2s1.8 2.8 2.7 4.1c2.5 3.6 5.8 6.4 10.1 6.4h25.6c7.5 0 13.6-7 13.6-15.6v-45.5c.2-3.7-2.7-6.9-6.3-6.9z"/><path d="M180.4 0H11.5C5.1 0 0 5 0 11.1v108.8c0 6.2 5.2 11.2 11.6 11.2h50.1s3.1 0 2.5-2.2c-.5-1.6-2.8-5.6-2.9-5.8-.9-1.8-3.4-1.6-3.4-1.6H21c-1.5 0-2.8-1.2-2.8-2.7V12.2c0-1.5 1.3-2.7 2.8-2.7h145.2c1.5 0 2.8 1.2 2.8 2.7v106.6c0 1.5-1.3 2.7-2.8 2.7H147s-3.9-.4-3.9 2.8v3.9c0 2.8 4.1 2.8 4.1 2.8h33.2c6.4 0 11.6-5 11.6-11.2V11.1C192 5 186.8 0 180.4 0zm-2.3 70.8c-3.1 0-5.6-2.4-5.6-5.4 0-3 2.5-5.4 5.6-5.4 3.1 0 5.6 2.4 5.6 5.4 0 3-2.5 5.4-5.6 5.4z"/></svg>