<svg xmlns="http://www.w3.org/2000/svg" viewBox="0 0 192 164"><path d="M111.6 149.7c0-.8-.6-1.3-1.3-1.3H81.7c-.8 0-1.3.6-1.3 1.3v4.5c0 .8-.6 1.3-1.3 1.3H58.7c-.8 0-1.3.6-1.3 1.3v5.8c0 .8.6 1.3 1.3 1.3h74.7c.8 0 1.3-.6 1.3-1.3v-5.8c0-.8-.6-1.3-1.3-1.3H113c-.8 0-1.3-.6-1.3-1.3l-.1-4.5zM181.2 0H10.8C4.8 0 0 4.9 0 10.8v119.5c0 6 4.8 10.9 10.8 10.9h170.5c5.9 0 10.8-4.9 10.8-10.9V10.8C192 4.9 187.1 0 181.2 0zM96 131.9c-2.7 0-4.9-2.2-4.9-4.9s2.2-4.9 4.9-4.9 4.9 2.2 4.9 4.9-2.2 4.9-4.9 4.9zm87.8-15.1H8.1v-106c0-1.4 1.2-2.6 2.6-2.6h170.5c1.4 0 2.6 1.2 2.6 2.6v106z"/><path d="M162 33.1c-1.7-1.3-4-1-5.3.7l-27.8 36.7-33-17.7c-3-1.6-6.8-.7-8.8 2.2l-22 32.2c-.2.2-.8.6-1.1.6H32.3c-2.1 0-3.8 1.7-3.8 3.8 0 2.1 1.7 3.8 3.8 3.8h31.9c2.7 0 5.8-1.6 7.3-3.9L93 59.8l32.9 17.7c2.9 1.6 6.8.7 8.8-2l28.1-37.2c1.2-1.6.8-3.9-.8-5.2z"/></svg>