<svg id="Capa_1" xmlns="http://www.w3.org/2000/svg" viewBox="0 0 159 159"><style>.st0{fill:#e8aa5a}</style><path class="st0" d="M19.9 24.8V5c0-2.8 2.2-5 5-5s5 2.2 5 5v19.9c0 2.7-2.2 4.9-5 4.9s-5-2.2-5-5zm84.4 5c2.7 0 5-2.2 5-5V5c0-2.8-2.2-5-5-5s-5 2.2-5 5v19.9c.1 2.7 2.3 4.9 5 4.9zm54.7 89.5c0 22-17.8 39.8-39.8 39.8s-39.8-17.8-39.8-39.8 17.8-39.8 39.8-39.8S159 97.3 159 119.3zm-9.9 0c0-16.5-13.3-29.8-29.8-29.8s-29.8 13.4-29.8 29.8 13.3 29.8 29.8 29.8 29.8-13.4 29.8-29.8zM39.8 59.7H19.9v19.8h19.9V59.7zm-19.9 49.6h19.9V89.4H19.9v19.9zm29.8-29.8h19.9V59.7H49.7v19.8zm0 29.8h19.9V89.4H49.7v19.9zm-39.8 9V49.7h109.3v19.9h9.9V30.8c0-6.1-4.8-10.9-10.8-10.9h-4.1v5c0 5.5-4.5 9.9-9.9 9.9-5.5 0-9.9-4.4-9.9-9.9v-5H34.8v5c0 5.5-4.5 9.9-9.9 9.9s-9.9-4.5-9.9-10v-5h-4.1C4.8 19.8 0 24.8 0 30.7v87.4c0 6.1 4.8 10.9 10.8 10.9h58.8v-9.9H10.8c-.4.2-.9-.3-.9-.8zm89.5-38.8V59.7H79.5v19.8h19.9zm34.8 39.8h-14.9v-14.9c0-2.8-2.2-5-5-5s-5 2.2-5 5v19.9c0 2.8 2.2 5 5 5h19.9c2.7 0 5-2.2 5-5s-2.3-5-5-5z"/></svg>