<svg height="164" width="194" xmlns="http://www.w3.org/2000/svg" viewBox="0 0 194 164"><path fill="#392919" fill-rule="evenodd" d="M182.87 140.83H11.13C5.16 140.83.3 135.98.3 130.02V10.89C.3 4.93 5.16.08 11.13.08h171.74c5.97 0 10.83 4.85 10.83 10.81v119.13c0 5.96-4.86 10.81-10.83 10.81zM97 131.49c2.7 0 4.88-2.18 4.88-4.87a4.88 4.88 0 0 0-9.76 0c0 2.69 2.18 4.87 4.88 4.87zm88.5-120.6c0-1.42-1.21-2.63-2.63-2.63H11.13c-1.43 0-2.63 1.21-2.63 2.63V116.5h177V10.89zM32.81 87.57H64.9c.28-.02.9-.35 1.09-.59l22.05-32.14c1.93-2.81 5.81-3.76 8.83-2.16l33.29 17.68 28-36.6a3.82 3.82 0 0 1 5.34-.72 3.797 3.797 0 0 1 .71 5.33l-28.32 37.02c-2.02 2.64-5.9 3.48-8.83 1.93l-33.14-17.6-21.66 31.57c-1.54 2.25-4.64 3.87-7.36 3.87H32.81c-2.1 0-3.8-1.7-3.8-3.79 0-2.1 1.7-3.8 3.8-3.8zm26.56 67.51h20.55c.74 0 1.35-.61 1.35-1.35v-4.52c0-.74.61-1.34 1.35-1.34h28.76c.74 0 1.35.6 1.35 1.34v4.52c0 .74.61 1.35 1.35 1.35h20.55c.75 0 1.35.6 1.35 1.34v5.78c0 .74-.6 1.35-1.35 1.35H59.37c-.74 0-1.35-.61-1.35-1.35v-5.78c0-.74.61-1.34 1.35-1.34z"/></svg>