<svg id="Capa_1" xmlns="http://www.w3.org/2000/svg" viewBox="0 0 159 159"><style>.st0{fill:#e8aa5a}</style><path class="st0" d="M145.8 0H13.2C5.9 0 0 6.8 0 15.1v98.7c0 8.4 5.9 15.1 13.2 15.1h42.7l-8.1 20.4c-.8 2.1-.7 4.5.4 6.5s3 3.1 5 3.1h52.5c3.3 0 6-3 6-6.8 0-1.1-.2-2.2-.7-3.1l-8-20.1h42.7c7.3 0 13.2-6.8 13.2-15.1V15.1C159 6.8 153.1 0 145.8 0zm1.3 113.8c0 .8-.6 1.5-1.3 1.5H13.2c-.7 0-1.3-.7-1.3-1.5V15.1c0-.8.6-1.5 1.3-1.5h132.6c.7 0 1.3.7 1.3 1.5v98.7z"/><path class="st0" d="M107.6 35.2c-.4-.2-8.7-5.9-28.1-5.9S51.7 35 51.4 35.2c-1.1.8-1.7 2.2-1.7 3.6 0 .5.4 10.8 4 24.1 2.1 7.8 4.9 15 8.2 21.4 4.2 8 9.4 14.9 15.4 20.2.6.6 1.4.9 2.2.9.8 0 1.6-.3 2.2-.9 6-5.3 11.2-12.1 15.4-20.2 3.3-6.4 6.1-13.6 8.2-21.4 3.6-13.3 4-23.6 4-24.1.1-1.5-.6-2.9-1.7-3.6zM92.7 54.9L77 72.8c-.4.5-1.1.8-1.7.8s-1.2-.3-1.7-.8l-7.2-8.4c-1-1.1-1-2.8 0-3.9l1.4-1.6c.4-.5 1.1-.8 1.7-.8s1.2.3 1.7.8l4.2 4.8L88 49.3c.4-.5 1.1-.8 1.7-.8s1.2.3 1.7.8l1.4 1.6c.9 1.1.9 2.9-.1 4z"/></svg>