<svg id="Capa_1" xmlns="http://www.w3.org/2000/svg" viewBox="0 0 159 159"><style>.st0{fill:#e8aa5a}</style><path class="st0" d="M149.4 0H9.6C4.3 0 0 4.7 0 10.5v138c0 5.8 4.3 10.5 9.6 10.5h139.9c5.3 0 9.6-4.7 9.6-10.5v-138C159 4.7 154.7 0 149.4 0zm-28.8 17.6c0-2.1 1.6-3.9 3.5-3.9h3.5c1.9 0 3.5 1.7 3.5 3.9V22c0 2.1-1.6 3.9-3.5 3.9h-3.5c-1.9 0-3.5-1.7-3.5-3.9v-4.4zm-16.4 0c0-2.1 1.6-3.9 3.5-3.9h3.5c1.9 0 3.5 1.7 3.5 3.9V22c0 2.1-1.6 3.9-3.5 3.9h-3.5c-1.9 0-3.5-1.7-3.5-3.9v-4.4zm43.3 128.8h-136V37.6h136v108.8zm.1-124.3c0 2.1-1.6 3.9-3.5 3.9h-3.5c-1.9 0-3.5-1.7-3.5-3.9v-4.4c0-2.1 1.6-3.9 3.5-3.9h3.5c1.9 0 3.5 1.7 3.5 3.9v4.4z"/><path class="st0" d="M34.1 96.1l25.6 13.1c.6.4 1.4.5 2.1.5.9 0 1.9-.3 2.7-.8 1.4-1 2.3-2.7 2.3-4.6v-.1c0-2.1-1.1-4.1-2.9-5l-16-8.2 16-8.2c1.7-.9 2.9-2.9 2.9-5v-.2c0-1.9-.9-3.6-2.3-4.6-.8-.6-1.7-.8-2.7-.8-.7 0-1.5.2-2.1.5L34.1 85.8c-1.7.9-2.9 2.9-2.9 5v.4c0 2 1.2 4 2.9 4.9zM67 122.8c.9 1.4 2.4 2.2 4 2.2h.1c2.2 0 4.1-1.5 4.7-3.8l16.9-57.5c.5-1.7.2-3.5-.7-4.9-.9-1.4-2.4-2.2-4-2.2h-.1c-2.2 0-4.1 1.5-4.7 3.8l-16.9 57.5c-.5 1.6-.2 3.5.7 4.9zM92.2 77.8c0 2.1 1.1 4.1 2.9 5l16 8.2-16 8.2c-1.7.9-2.9 2.9-2.9 5v.1c0 1.9.9 3.6 2.3 4.6.8.6 1.7.8 2.7.8.7 0 1.4-.2 2.1-.5l25.6-13.1c1.7-.9 2.9-2.9 2.9-5v-.4c0-2.1-1.1-4.1-2.9-5l-25.6-13c-.6-.3-1.4-.5-2.1-.5-1 0-1.9.3-2.7.8-1.5 1-2.3 2.7-2.3 4.6v.2z"/></svg>