<svg height="162" width="211" xmlns="http://www.w3.org/2000/svg" viewBox="0 0 211 162"><path fill="#392919" fill-rule="evenodd" d="M199.96 134.62H86.12s-4.24 0-4.24-5.32v-12.61c0-5.32 4.11-5.31 4.11-5.31h116.47V10.52c0-1.36-1.14-2.51-2.5-2.51H36.59c-1.36 0-2.51 1.15-2.51 2.51V37.4c0 3.63.41 4.13-1.59 4.13H28.4c-2.39 0-2.12-.5-2.12-4.06V10.52C26.28 4.83 30.9.19 36.59.19h163.37c5.68 0 10.31 4.64 10.31 10.33v113.77c0 5.69-4.63 10.33-10.31 10.33zm-81.69-18.23c-2.56 0-4.64 2.08-4.64 4.65 0 2.57 2.08 4.66 4.64 4.66 2.57 0 4.65-2.09 4.65-4.66 0-2.57-2.08-4.65-4.65-4.65zM72.63 57.43v97.34c0 3.67-2.98 6.66-6.65 6.66H6.88c-3.67 0-6.65-2.99-6.65-6.66V57.43c0-3.68 2.98-6.67 6.65-6.67h59.1c3.67 0 6.65 2.99 6.65 6.67zm-36.29 99.32a3.45 3.45 0 0 0 0-6.9c-1.9 0-3.44 1.54-3.44 3.45 0 1.9 1.54 3.45 3.44 3.45zm7.38-99.19H29.14c-.69 0-1.26.57-1.26 1.26 0 .7.57 1.27 1.26 1.27h14.58c.7 0 1.26-.57 1.26-1.27 0-.69-.56-1.26-1.26-1.26zm-36.2 6.55c-.86 0-1.57.73-1.57 1.61v80.89c0 .89.71 1.61 1.57 1.61h57.82c.87 0 1.58-.72 1.58-1.61V65.72c0-.88-.71-1.61-1.58-1.61H7.52zm75.82 87.12h17.21c.83 0 1.51-.68 1.51-1.51v-5.58c0-.83.67-1.5 1.5-1.5h32.04c.82 0 1.5.67 1.5 1.5v5.58c0 .83.67 1.51 1.5 1.51h22.89c.83 0 1.5.67 1.5 1.5v6.46c0 .83-.67 1.51-1.5 1.51H83.34c-.82 0-1.5-.68-1.5-1.51v-6.46c0-.83.68-1.5 1.5-1.5z"/></svg>