<svg id="Capa_1" xmlns="http://www.w3.org/2000/svg" viewBox="0 0 159 157.3"><style>.st0{fill:#e8aa5a}</style><path class="st0" d="M151.5 0H86.8c-4.2 0-7.5 4.1-7.5 9v40.2c0 5 3.4 9 7.5 9h5.7v15.9c0 1.1.5 2.1 1.4 2.6.3.2.6.2 1 .2.5 0 1.1-.2 1.5-.7l17.4-18.1h37.8c4.2 0 7.5-4.1 7.5-9v-40c-.1-5-3.5-9.1-7.6-9.1zm-51.1 35.8c-3.3 0-6-3.2-6-7.2s2.7-7.2 6-7.2 6 3.2 6 7.2c0 3.9-2.7 7.2-6 7.2zm18.7 0c-3.3 0-6-3.2-6-7.2s2.7-7.2 6-7.2 6 3.2 6 7.2c0 3.9-2.7 7.2-6 7.2zm18.8 0c-3.3 0-6-3.2-6-7.2s2.7-7.2 6-7.2 6 3.2 6 7.2-2.7 7.2-6 7.2zM47.7 38.9c-14.6 0-22.6 9.1-22.5 26.6.2 24 8.7 38.5 22.5 38.3 0 0 22.5 1.1 22.5-38.3 0-17.6-7.6-26.6-22.5-26.6zM87.5 121.9L65 111.1l-5.3-5.3c-1.4-1.4-3.5-1.3-4.7.2l-7.3 8.7-7.3-8.7c-1.3-1.5-3.4-1.6-4.7-.2l-5.3 5.3-22.6 10.8C.6 125.4.6 156.2 0 159h95.3c-.6-2.8-.6-33.6-7.8-37.1z"/></svg>